<?xml version="1.0" encoding="utf-8"?>
<!-- Generator: Adobe Illustrator 21.0.2, SVG Export Plug-In . SVG Version: 6.00 Build 0)  -->
<svg version="1.1" xmlns="http://www.w3.org/2000/svg" xmlns:xlink="http://www.w3.org/1999/xlink" x="0px" y="0px"
	 viewBox="0 0 100 100" style="enable-background:new 0 0 100 100;" xml:space="preserve">
<style type="text/css">
	.st0{fill:#FFFFFF;stroke:#222222;stroke-linecap:round;stroke-linejoin:round;stroke-miterlimit:10;}
	.st1{fill:#00A3BC;stroke:#222222;stroke-miterlimit:10;}
	.st2{fill:#FFFFFF;stroke:#222222;stroke-width:2;stroke-linecap:round;stroke-linejoin:round;stroke-miterlimit:10;}
</style>
<g id="Livello_2">
	<g>
		<path class="st0" d="M52.7,65.8H5.3c-0.8,0-1.3-0.6-1.3-1.3V5.3C4,4.6,4.6,4,5.3,4h47.3C53.4,4,54,4.6,54,5.3v59.1
			C54,65.2,53.4,65.8,52.7,65.8z"/>
		<path class="st1" d="M29.8,59.8H8.4c-0.7,0-1.3-0.6-1.3-1.3l0,0c0-0.8,0.6-1.3,1.3-1.3h21.4c0.8,0,1.3,0.6,1.3,1.3l0,0
			C31.1,59.2,30.5,59.8,29.8,59.8z"/>
		<path class="st1" d="M29.8,55.8H8.4c-0.7,0-1.3-0.6-1.3-1.3l0,0c0-0.8,0.6-1.3,1.3-1.3h21.4c0.8,0,1.3,0.6,1.3,1.3l0,0
			C31.1,55.2,30.5,55.8,29.8,55.8z"/>
		<rect x="27.4" y="10.9" class="st2" width="3.2" height="10.9"/>
		<path class="st0" d="M51.9,13.9H6.1c-0.8,0-1.3-0.8-1.3-1.8L4,5.8C4,4.8,4.6,4,5.3,4h47.3C53.4,4,54,4.8,54,5.8l-0.8,6.3
			C53.2,13.1,52.6,13.9,51.9,13.9z"/>
		<circle class="st1" cx="29" cy="21.8" r="3.9"/>
	</g>
</g>
<g id="Livello_1">
	<g>
		<polygon class="st0" points="96,85.7 60.5,98.5 60.5,56.5 96,43.7 		"/>
		<polygon class="st0" points="26,85.7 60.3,98.5 60.3,56.5 26,43.7 		"/>
		<polygon class="st0" points="60.4,30.5 26,43.7 60.1,56.5 96,43.7 		"/>
		<polygon class="st1" points="37,64.9 50.7,70 50.7,53.2 37,48.1 		"/>
		<polygon class="st1" points="43.2,87 56.9,92.1 56.9,84.7 43.2,79.6 		"/>
		<polygon class="st1" points="50.8,42.8 37,48.1 50.7,53.2 65.1,48.1 		"/>
	</g>
</g>
</svg>
